<?xml version="1.0" encoding="utf-8"?>
<!-- Svg Vector Icons : http://www.onlinewebfonts.com/icon -->
<!DOCTYPE svg PUBLIC "-//W3C//DTD SVG 1.1//EN" "http://www.w3.org/Graphics/SVG/1.1/DTD/svg11.dtd">
<svg version="1.1" xmlns="http://www.w3.org/2000/svg" xmlns:xlink="http://www.w3.org/1999/xlink" x="0px" y="0px" viewBox="0 0 1000 1000" enable-background="new 0 0 1000 1000" xml:space="preserve">
<metadata> Svg Vector Icons : http://www.onlinewebfonts.com/icon </metadata>
<g><g transform="matrix(1 0 0 -1 0 1008)"><path fill="#c70101" d="M10,508c0,134.8,48,250.2,143.9,346.1C249.8,950,365.2,998,500,998c134.8,0,250.2-48,346.1-143.9C942,758.2,990,642.8,990,508c0-134.8-48-250.2-143.9-346.1S634.8,18,500,18c-134.8,0-250.2,48-346.1,143.9C58,257.8,10,373.2,10,508z M847.1,505.1L500,852.2L152.9,505.1l99.2-99.2L430,583.8V158h140v425.8l177.9-177.9L847.1,505.1z"/></g></g>
</svg>